<svg xmlns="http://www.w3.org/2000/svg" viewBox="0 0 200 160">
  <ellipse cx="100" cy="142" rx="56" ry="10" fill="#E4EBF7"/>
  <rect x="46" y="26" width="108" height="104" rx="26" fill="#fff" stroke="#BCD2EE" stroke-width="4"/>
  <rect x="46" y="26" width="108" height="34" rx="17" fill="#DCE9FB"/>
  <circle cx="68" cy="43" r="4" fill="#7FA8DC"/><circle cx="84" cy="43" r="4" fill="#7FA8DC" opacity=".5"/>
  <rect x="62" y="76" width="30" height="26" rx="9" fill="#FFE1E7"/>
  <rect x="98" y="76" width="40" height="26" rx="9" fill="#FFF0C8"/>
  <rect x="62" y="108" width="76" height="10" rx="5" fill="#F1E9E9"/>
  <path d="M100 8c-6-5-9-9-7-13 2-2 6-1 7 2 1-3 5-4 7-2 2 4 0 8-7 13z" fill="#F0627E"/>
</svg>
